<svg width="167" height="32" viewBox="0 0 167 32" fill="none" xmlns="http://www.w3.org/2000/svg">
<path d="M84.881 18.2963C86.4637 13.637 88.0463 8.94304 89.6573 4.28012C89.8954 3.51602 90.2846 2.80752 90.8018 2.19665C91.319 1.58578 91.9537 1.08498 92.6681 0.723964C93.3825 0.362948 94.1622 0.149068 94.9609 0.0950108C95.7595 0.040954 96.5609 0.147822 97.3175 0.409275C98.0502 0.676569 98.6983 1.13433 99.195 1.73539C99.6918 2.33646 100.019 3.05908 100.144 3.82881C100.421 5.59468 100.516 7.38437 100.426 9.16961V29.0912C100.426 31.1257 100.313 31.2107 98.2496 31.239C97.0617 31.239 95.9039 31.2107 94.7169 31.239C93.5866 31.2673 93.1635 30.8151 93.1909 29.6283C93.2476 22.6486 93.2476 15.6971 93.2476 8.71738C93.2281 8.06227 93.1526 7.41003 93.0219 6.7678C92.9652 6.40237 92.7952 6.00496 92.3438 5.97664C91.8915 5.97664 91.7782 6.37222 91.6375 6.73948C90.6195 9.76343 89.5742 12.8148 88.5846 15.8387C87.0299 20.5285 85.4658 25.2182 83.8923 29.9079C83.6666 30.5858 83.44 31.3486 82.592 31.4336C81.7157 31.5185 81.3766 30.7557 81.0943 30.1619C80.0114 27.653 79.1233 25.0645 78.4379 22.4193C76.9686 17.644 75.555 12.8678 74.0856 8.09249C73.8873 7.41462 73.8873 6.25528 73.0119 6.34024C71.9382 6.45353 72.1895 7.66859 72.1895 8.45975C72.1612 15.4395 72.1895 22.3909 72.1895 29.3707C72.1895 30.2185 72.2745 31.123 71.0592 31.2636C69.8438 31.4043 69.3065 30.953 69.2782 29.5397C69.2499 26.5724 69.2782 23.6014 69.2782 20.6387C69.2782 15.7501 69.2782 10.8332 69.3065 5.94466C69.1766 4.52215 69.5572 3.09981 70.3802 1.93222C70.9649 1.18163 71.7511 0.612931 72.6471 0.292607C73.5431 -0.0277173 74.5117 -0.0864327 75.4398 0.123325C76.4317 0.231444 77.3717 0.621754 78.1483 1.24795C78.9249 1.87414 79.5056 2.70992 79.8214 3.65614C81.235 8.03585 82.6477 12.4448 84.0613 16.8245L84.5703 18.2652C84.6722 18.2883 84.7766 18.2988 84.881 18.2963Z" fill="#234397"></path>
<path d="M0.0337564 15.894C-0.114052 13.701 0.224776 11.5024 1.026 9.45556C1.82722 7.40872 3.07103 5.56422 4.66844 4.05404C8.42773 0.380527 16.0313 -0.891178 20.8076 1.34253C21.0755 1.436 21.3188 1.58871 21.5194 1.78929C21.72 1.98987 21.8728 2.23313 21.9663 2.50095C22.0719 2.71479 22.1196 2.95258 22.1047 3.19061C22.0898 3.42864 22.0128 3.65862 21.8813 3.85762C21.5158 4.28152 21.09 3.88594 20.7226 3.74433C19.4055 3.22028 18.0116 2.91478 16.596 2.83989C14.5524 2.65998 12.508 3.1757 10.7944 4.30336C9.0808 5.43103 7.79857 7.10449 7.15575 9.05224C5.2624 14.0541 5.06411 19.1683 7.52126 24.1419C8.17238 25.3832 9.06968 26.4788 10.1584 27.3618C11.2471 28.2449 12.5044 28.8969 13.8535 29.278C15.2026 29.6592 16.6153 29.7614 18.0053 29.5786C19.3952 29.3958 20.7333 28.9317 21.9379 28.2146C23.04 27.5367 23.0683 27.1411 22.1079 26.1517C22.0036 26.0603 21.9195 25.948 21.8611 25.8221C21.8027 25.6963 21.7713 25.5596 21.7689 25.4209C21.7689 23.612 21.7122 21.8579 21.7689 20.1084C21.7972 19.2862 22.7019 18.9783 23.4649 19.5712C24.9512 20.6579 26.3586 21.8485 27.6765 23.1342C29.4574 24.9988 29.2299 26.836 27.1392 28.4183C23.3232 31.329 18.9709 32.2334 14.2549 31.9502C11.6064 31.9134 9.01395 31.1826 6.73632 29.8307C2.52106 27.1685 0.486077 23.1844 0.0337564 18.2958C-0.0228979 17.5047 0.0337564 16.7135 0.0337564 15.894Z" fill="#234397"></path>
<path d="M155.035 23.778C155.035 25.6426 154.978 27.5081 155.062 29.3728C155.119 30.6728 154.638 31.2374 153.282 31.2374C150.089 31.2657 150.06 31.294 150.117 28.1011C150.202 22.9302 150.541 17.7584 150.174 12.5875C150.033 10.7786 150.343 10.5777 152.184 10.5777C154.925 10.5493 157.639 10.5777 160.352 10.7759C161.583 10.7958 162.772 11.2266 163.73 11.9999C164.687 12.7731 165.359 13.8444 165.637 15.0432C165.901 16.299 165.746 17.6067 165.194 18.7654C164.643 19.9242 163.726 20.8699 162.585 21.4575C160.522 22.4752 160.522 22.5026 161.907 24.3682L165.976 29.7939C166.203 30.1045 166.683 30.4435 166.485 30.8674C166.287 31.3196 165.754 31.178 165.355 31.2063C161.115 31.4046 161.115 31.4046 158.571 27.9567C157.526 26.516 156.48 25.1027 155.433 23.6629C155.297 23.6878 155.164 23.7264 155.035 23.778ZM155.035 16.5443H155.007V19.6504C155.007 20.0743 155.063 20.4982 155.544 20.6956C156.388 20.9042 157.272 20.8804 158.103 20.6267C158.934 20.373 159.681 19.8989 160.264 19.2549C160.796 18.559 161.1 17.7165 161.135 16.8419C161.171 15.9672 160.936 15.1028 160.463 14.3663C159.927 13.6778 159.218 13.1429 158.41 12.8155C157.601 12.4881 156.72 12.3799 155.855 12.5017C155.206 12.6149 155.033 13.0388 155.033 13.6034L155.035 16.5443Z" fill="#234397"></path>
<path d="M28.0414 15.9801C28.7604 15.4781 29.3591 14.8228 29.7941 14.0615C30.3314 13.0438 30.8394 13.1854 31.405 14.0332C33.355 16.9439 33.186 19.9715 31.914 23.0475C31.5256 23.962 30.9696 24.7958 30.2747 25.506C29.7374 26.0431 29.2293 26.1272 29.201 25.167C29.166 24.4594 28.96 23.7708 28.6006 23.1602C28.2413 22.5495 27.7393 22.035 27.1377 21.6607C24.877 19.9934 22.6154 18.3545 22.5871 14.7942C19.2801 18.2421 20.1281 21.9156 20.7504 25.7572C19.9318 25.2925 19.272 24.5921 18.857 23.7473C16.1157 19.7349 15.9174 15.6941 18.6871 11.625C19.7608 10.0719 20.9203 8.60106 22.0507 7.07538C23.3948 5.36547 24.2884 3.34569 24.6495 1.20106C24.7061 0.835624 24.6495 0.378833 25.1018 0.26829C25.5258 0.183327 25.7798 0.550586 26.0064 0.862118C27.7591 3.23743 28.4371 6.00466 28.9744 8.85869C29.3512 11.2728 29.0274 13.7444 28.0414 15.9801Z" fill="#234397"></path>
<path d="M39.2908 25.0507C34.9961 25.1074 36.0926 24.5135 34.8535 28.4419C34.6875 29.1306 34.4606 29.8032 34.1755 30.4518C34.1134 30.608 34.0203 30.7501 33.9018 30.8694C33.7834 30.9888 33.642 31.0829 33.4862 31.1462C33.3305 31.2096 33.1635 31.2407 32.9954 31.2379C32.8272 31.2351 32.6614 31.1982 32.5079 31.1297C31.8015 30.8474 32.1122 30.2536 32.2538 29.773C33.7232 24.4322 35.1935 19.0631 36.7195 13.7506C37.4258 11.2639 39.3484 10.0205 41.5524 10.4161C42.263 10.4947 42.9336 10.7844 43.4778 11.2479C44.022 11.7114 44.4148 12.3273 44.6054 13.0161C46.2164 18.6675 47.7707 24.3189 49.3817 29.9996C49.6357 30.904 49.2401 31.2147 48.4204 31.243H48.138C43.8698 31.243 44.7178 31.6084 43.5591 27.9084C42.5128 24.5428 43.3891 25.1074 39.2908 25.0507ZM39.1775 23.0162H40.731C41.6639 23.0445 42.0313 22.5356 41.833 21.6878C41.2673 19.455 40.6743 17.2515 40.0803 15.047C39.9954 14.6816 39.798 14.3161 39.3493 14.2842C38.812 14.2558 38.6713 14.6798 38.558 15.1064C38.1057 16.8303 37.625 18.5259 37.1727 20.2489C36.4079 23.0162 36.4079 23.0162 39.1775 23.0162Z" fill="#234397"></path>
<path d="M134.597 21.2934C134.517 18.9833 134.593 16.6703 134.823 14.3703C134.853 13.4427 135.23 12.56 135.878 11.8959C136.527 11.2319 137.401 10.8344 138.327 10.7817C141.464 10.4428 144.632 10.6401 147.796 10.6118C148.446 10.6118 149.04 10.7534 149.04 11.6012C149.04 12.449 148.418 12.5906 147.768 12.5906C145.733 12.619 143.726 12.5906 141.691 12.619C140.023 12.6473 139.486 13.1845 139.486 14.8517C139.486 16.0394 139.628 17.1969 139.656 18.3836C139.656 19.2881 140.052 19.6554 140.956 19.627C142.511 19.599 144.064 19.599 145.617 19.627C146.38 19.6554 147.398 19.4571 147.369 20.7005C147.341 21.8589 146.38 21.6333 145.673 21.6333C144.119 21.6613 142.565 21.6613 141.013 21.6333C140.052 21.6049 139.656 22.0288 139.684 22.9899C139.713 24.459 139.741 25.9006 139.684 27.3696C139.656 28.7263 140.334 29.2342 141.579 29.2068H147.518C148.225 29.2068 149.044 29.1785 149.044 30.2246C149.044 31.2706 148.196 31.214 147.518 31.214C144.777 31.2423 142.063 31.2706 139.322 31.214C136.467 31.1573 135.11 29.914 134.714 27.0882C134.62 26.1021 134.582 25.1114 134.601 24.1209L134.597 21.2934Z" fill="#234397"></path>
<path d="M103.479 20.8672C103.479 18.9487 103.45 16.9955 103.479 15.0742C103.507 12.3618 104.921 10.9768 107.605 10.7511C110.46 10.4972 113.343 10.6378 116.195 10.6095C116.926 10.6095 117.863 10.5529 117.806 11.683C117.778 12.7007 116.901 12.6157 116.223 12.6157C114.188 12.6441 112.182 12.6441 110.147 12.6157C109.899 12.5759 109.645 12.5949 109.406 12.6712C109.167 12.7476 108.949 12.8791 108.77 13.0552C108.591 13.2313 108.456 13.447 108.376 13.6849C108.296 13.9228 108.273 14.1762 108.309 14.4246C108.309 15.753 108.337 17.053 108.309 18.3804C108.281 19.2849 108.705 19.6521 109.581 19.6238C111.277 19.5955 112.973 19.6238 114.669 19.6238C115.4 19.6238 116.195 19.6521 116.195 20.6416C116.195 21.631 115.373 21.631 114.642 21.631C112.946 21.631 111.25 21.6593 109.554 21.631C108.649 21.6026 108.282 21.9964 108.31 22.9027C108.338 24.2593 108.282 25.6434 108.31 27.0001C108.338 28.724 108.791 29.1762 110.487 29.2045C112.465 29.2329 114.443 29.2045 116.426 29.2045C117.104 29.2045 117.811 29.2329 117.84 30.1656C117.868 31.0701 117.19 31.2108 116.483 31.2108C113.571 31.2108 110.635 31.2674 107.721 31.1824C104.923 31.0975 103.452 29.4868 103.426 26.6611C103.454 24.7426 103.482 22.8177 103.482 20.8681L103.479 20.8672Z" fill="#234397"></path>
<path d="M59.3878 31.2395C57.4689 31.2395 55.5152 31.2678 53.5936 31.2395C51.9826 31.2111 51.8693 31.0979 52.5199 29.6571C54.7248 24.5703 56.9855 19.4844 59.2188 14.4003C59.9818 12.6764 59.9498 12.6198 58.0884 12.6198H53.9883C53.3944 12.6198 52.8004 12.4782 52.773 11.7436C52.7447 10.9214 53.3103 10.6702 53.9883 10.6702C57.0952 10.6985 60.202 10.5003 63.3153 10.7835C65.0962 10.9534 65.5485 11.6879 64.8687 13.3552C63.0594 17.7916 61.1944 22.2279 59.386 26.6643C59.2444 27.0032 59.1036 27.3705 58.962 27.7094C58.3964 29.1784 58.3964 29.2068 59.9233 29.2351H65.5759C66.254 29.2351 67.1294 29.1218 67.1586 30.1678C67.1869 31.2979 66.2823 31.2413 65.5476 31.2413L59.3878 31.2395Z" fill="#234397"></path>
<path d="M123.803 21.9137C123.803 19.427 123.775 16.9402 123.831 14.4224C123.86 13.1223 123.379 12.5294 122.022 12.5851C121.174 12.6135 119.79 13.0374 119.845 11.5957C119.874 10.2108 121.259 10.663 122.106 10.6347C124.932 10.578 127.759 10.6063 130.557 10.6347C131.023 10.6257 131.488 10.6733 131.942 10.7763C132.148 10.8344 132.325 10.9693 132.435 11.1532C132.545 11.3371 132.581 11.5562 132.535 11.7657C132.532 11.956 132.463 12.1394 132.339 12.2839C132.215 12.4284 132.045 12.525 131.857 12.5568C131.687 12.5851 131.491 12.5851 131.291 12.6135C128.493 12.8391 128.465 12.8391 128.493 15.7196C128.522 20.1277 128.607 24.564 128.663 28.973C128.692 31.0925 128.55 31.2332 126.487 31.2615C126.148 31.2615 125.837 31.2332 125.497 31.2615C124.253 31.3464 123.717 30.8659 123.744 29.5376C123.829 26.9941 123.773 24.4507 123.773 21.9366C123.774 21.9296 123.778 21.9234 123.783 21.9191C123.789 21.9149 123.796 21.9129 123.803 21.9137Z" fill="#234397"></path>
</svg>
