<svg width="167" height="32" viewBox="0 0 167 32" fill="none" xmlns="http://www.w3.org/2000/svg">
<path d="M84.881 18.2963C86.4637 13.637 88.0463 8.94304 89.6573 4.28012C89.8954 3.51602 90.2846 2.80752 90.8018 2.19665C91.319 1.58578 91.9537 1.08498 92.6681 0.723964C93.3825 0.362948 94.1622 0.149068 94.9609 0.0950108C95.7595 0.040954 96.5609 0.147822 97.3175 0.409275C98.0502 0.676569 98.6983 1.13433 99.195 1.73539C99.6918 2.33646 100.019 3.05908 100.144 3.82881C100.421 5.59468 100.516 7.38437 100.426 9.16961V29.0912C100.426 31.1257 100.313 31.2107 98.2496 31.239C97.0617 31.239 95.9039 31.2107 94.7169 31.239C93.5866 31.2673 93.1635 30.8151 93.1909 29.6283C93.2476 22.6486 93.2476 15.6971 93.2476 8.71738C93.2281 8.06227 93.1526 7.41003 93.0219 6.7678C92.9652 6.40237 92.7952 6.00496 92.3438 5.97664C91.8915 5.97664 91.7782 6.37222 91.6375 6.73948C90.6195 9.76343 89.5742 12.8148 88.5846 15.8387C87.0299 20.5285 85.4658 25.2182 83.8923 29.9079C83.6666 30.5858 83.44 31.3486 82.592 31.4336C81.7157 31.5185 81.3766 30.7557 81.0943 30.1619C80.0114 27.653 79.1233 25.0645 78.4379 22.4193C76.9686 17.644 75.555 12.8678 74.0856 8.09249C73.8873 7.41462 73.8873 6.25528 73.0119 6.34024C71.9382 6.45353 72.1895 7.66859 72.1895 8.45975C72.1612 15.4395 72.1895 22.3909 72.1895 29.3707C72.1895 30.2185 72.2745 31.123 71.0592 31.2636C69.8438 31.4043 69.3065 30.953 69.2782 29.5397C69.2499 26.5724 69.2782 23.6014 69.2782 20.6387C69.2782 15.7501 69.2782 10.8332 69.3065 5.94466C69.1766 4.52215 69.5572 3.09981 70.3802 1.93222C70.9649 1.18163 71.7511 0.612931 72.6471 0.292607C73.5431 -0.0277173 74.5117 -0.0864327 75.4398 0.123325C76.4317 0.231444 77.3717 0.621754 78.1483 1.24795C78.9249 1.87414 79.5056 2.70992 79.8214 3.65614C81.235 8.03585 82.6477 12.4448 84.0613 16.8245L84.5703 18.2652C84.6722 18.2883 84.7766 18.2988 84.881 18.2963Z" fill="#FAFAFA"></path>
<path d="M0.0337564 15.894C-0.114052 13.701 0.224776 11.5024 1.026 9.45556C1.82722 7.40872 3.07103 5.56422 4.66844 4.05404C8.42773 0.380527 16.0313 -0.891178 20.8076 1.34253C21.0755 1.436 21.3188 1.58871 21.5194 1.78929C21.72 1.98987 21.8728 2.23313 21.9663 2.50095C22.0719 2.71479 22.1196 2.95258 22.1047 3.19061C22.0898 3.42864 22.0128 3.65862 21.8813 3.85762C21.5158 4.28152 21.09 3.88594 20.7226 3.74433C19.4055 3.22028 18.0116 2.91478 16.596 2.83989C14.5524 2.65998 12.508 3.1757 10.7944 4.30336C9.0808 5.43103 7.79857 7.10449 7.15575 9.05224C5.2624 14.0541 5.06411 19.1683 7.52126 24.1419C8.17238 25.3832 9.06968 26.4788 10.1584 27.3618C11.2471 28.2449 12.5044 28.8969 13.8535 29.278C15.2026 29.6592 16.6153 29.7614 18.0053 29.5786C19.3952 29.3958 20.7333 28.9317 21.9379 28.2146C23.04 27.5367 23.0683 27.1411 22.1079 26.1517C22.0036 26.0603 21.9195 25.948 21.8611 25.8221C21.8027 25.6963 21.7713 25.5596 21.7689 25.4209C21.7689 23.612 21.7122 21.8579 21.7689 20.1084C21.7972 19.2862 22.7019 18.9783 23.4649 19.5712C24.9512 20.6579 26.3586 21.8485 27.6765 23.1342C29.4574 24.9988 29.2299 26.836 27.1392 28.4183C23.3232 31.329 18.9709 32.2334 14.2549 31.9502C11.6064 31.9134 9.01395 31.1826 6.73632 29.8307C2.52106 27.1685 0.486077 23.1844 0.0337564 18.2958C-0.0228979 17.5047 0.0337564 16.7135 0.0337564 15.894Z" fill="#FAFAFA"></path>
<path d="M155.035 23.779C155.035 25.6436 154.978 27.5091 155.062 29.3737C155.119 30.6738 154.638 31.2384 153.282 31.2384C150.089 31.2667 150.06 31.295 150.117 28.102C150.202 22.9312 150.541 17.7594 150.174 12.5885C150.033 10.7796 150.343 10.5786 152.184 10.5786C154.925 10.5503 157.639 10.5786 160.352 10.7769C161.583 10.7967 162.772 11.2276 163.73 12.0008C164.687 12.7741 165.359 13.8454 165.637 15.0442C165.901 16.3 165.746 17.6076 165.194 18.7664C164.643 19.9251 163.726 20.8709 162.585 21.4585C160.522 22.4762 160.522 22.5036 161.907 24.3691L165.976 29.7949C166.203 30.1055 166.683 30.4445 166.485 30.8684C166.287 31.3206 165.754 31.179 165.355 31.2073C161.115 31.4055 161.115 31.4055 158.571 27.9577C157.526 26.517 156.48 25.1037 155.433 23.6639C155.297 23.6888 155.164 23.7274 155.035 23.779ZM155.035 16.5452H155.007V19.6514C155.007 20.0753 155.063 20.4992 155.544 20.6965C156.388 20.9051 157.272 20.8813 158.103 20.6277C158.934 20.374 159.681 19.8999 160.264 19.2558C160.796 18.56 161.1 17.7175 161.135 16.8428C161.171 15.9682 160.936 15.1038 160.463 14.3673C159.927 13.6788 159.218 13.1438 158.41 12.8165C157.601 12.4891 156.72 12.3808 155.855 12.5026C155.206 12.6159 155.033 13.0398 155.033 13.6044L155.035 16.5452Z" fill="#FAFAFA"></path>
<path d="M28.0414 15.9791C28.7604 15.4771 29.3591 14.8219 29.7941 14.0606C30.3314 13.0428 30.8394 13.1844 31.405 14.0322C33.355 16.9429 33.186 19.9705 31.914 23.0465C31.5256 23.961 30.9696 24.7948 30.2747 25.505C29.7374 26.0422 29.2293 26.1262 29.201 25.166C29.166 24.4584 28.96 23.7698 28.6006 23.1592C28.2413 22.5486 27.7393 22.0341 27.1377 21.6597C24.877 19.9924 22.6154 18.3535 22.5871 14.7933C19.2801 18.2411 20.1281 21.9146 20.7504 25.7562C19.9318 25.2915 19.272 24.5911 18.857 23.7463C16.1157 19.7339 15.9174 15.6931 18.6871 11.624C19.7608 10.071 20.9203 8.60009 22.0507 7.07441C23.3948 5.36449 24.2884 3.34471 24.6495 1.20008C24.7061 0.834647 24.6495 0.377857 25.1018 0.267313C25.5258 0.18235 25.7798 0.54961 26.0064 0.861141C27.7591 3.23645 28.4371 6.00369 28.9744 8.85772C29.3512 11.2719 29.0274 13.7434 28.0414 15.9791Z" fill="#FAFAFA"></path>
<path d="M39.2908 25.0507C34.9961 25.1074 36.0926 24.5135 34.8535 28.4419C34.6875 29.1306 34.4606 29.8032 34.1755 30.4518C34.1134 30.608 34.0203 30.7501 33.9018 30.8694C33.7834 30.9888 33.642 31.0829 33.4862 31.1462C33.3305 31.2096 33.1635 31.2407 32.9954 31.2379C32.8272 31.2351 32.6614 31.1982 32.5079 31.1297C31.8015 30.8474 32.1122 30.2536 32.2538 29.773C33.7232 24.4322 35.1935 19.0631 36.7195 13.7506C37.4258 11.2639 39.3484 10.0205 41.5524 10.4161C42.263 10.4947 42.9336 10.7844 43.4778 11.2479C44.022 11.7114 44.4148 12.3273 44.6054 13.0161C46.2164 18.6675 47.7707 24.3189 49.3817 29.9996C49.6357 30.904 49.2401 31.2147 48.4204 31.243H48.138C43.8698 31.243 44.7178 31.6084 43.5591 27.9084C42.5128 24.5428 43.3891 25.1074 39.2908 25.0507ZM39.1775 23.0162H40.731C41.6639 23.0445 42.0313 22.5356 41.833 21.6878C41.2673 19.455 40.6743 17.2515 40.0803 15.047C39.9954 14.6816 39.798 14.3161 39.3493 14.2842C38.812 14.2558 38.6713 14.6798 38.558 15.1064C38.1057 16.8303 37.625 18.5259 37.1727 20.2489C36.4079 23.0162 36.4079 23.0162 39.1775 23.0162Z" fill="#FAFAFA"></path>
<path d="M134.597 21.2924C134.517 18.9823 134.593 16.6694 134.823 14.3693C134.853 13.4417 135.23 12.5591 135.878 11.895C136.527 11.2309 137.401 10.8334 138.327 10.7808C141.464 10.4418 144.632 10.6392 147.796 10.6108C148.446 10.6108 149.04 10.7524 149.04 11.6002C149.04 12.4481 148.418 12.5897 147.768 12.5897C145.733 12.618 143.726 12.5897 141.691 12.618C140.023 12.6463 139.486 13.1835 139.486 14.8508C139.486 16.0384 139.628 17.1959 139.656 18.3827C139.656 19.2871 140.052 19.6544 140.956 19.6261C142.511 19.598 144.064 19.598 145.617 19.6261C146.38 19.6544 147.398 19.4561 147.369 20.6995C147.341 21.8579 146.38 21.6323 145.673 21.6323C144.119 21.6603 142.565 21.6603 141.013 21.6323C140.052 21.604 139.656 22.0279 139.684 22.9889C139.713 24.458 139.741 25.8996 139.684 27.3687C139.656 28.7253 140.334 29.2333 141.579 29.2059H147.518C148.225 29.2059 149.044 29.1775 149.044 30.2236C149.044 31.2696 148.196 31.213 147.518 31.213C144.777 31.2413 142.063 31.2696 139.322 31.213C136.467 31.1564 135.11 29.913 134.714 27.0873C134.62 26.1012 134.582 25.1104 134.601 24.12L134.597 21.2924Z" fill="#FAFAFA"></path>
<path d="M103.479 20.8682C103.479 18.9497 103.45 16.9964 103.479 15.0752C103.507 12.3627 104.921 10.9778 107.605 10.7521C110.46 10.4981 113.343 10.6388 116.195 10.6105C116.926 10.6105 117.863 10.5539 117.806 11.684C117.778 12.7017 116.901 12.6167 116.223 12.6167C114.188 12.645 112.182 12.645 110.147 12.6167C109.899 12.5769 109.645 12.5959 109.406 12.6722C109.167 12.7486 108.949 12.8801 108.77 13.0562C108.591 13.2323 108.456 13.448 108.376 13.6859C108.296 13.9238 108.273 14.1772 108.309 14.4256C108.309 15.754 108.337 17.054 108.309 18.3814C108.281 19.2859 108.705 19.6531 109.581 19.6248C111.277 19.5965 112.973 19.6248 114.669 19.6248C115.4 19.6248 116.195 19.6531 116.195 20.6425C116.195 21.6319 115.373 21.6319 114.642 21.6319C112.946 21.6319 111.25 21.6603 109.554 21.6319C108.649 21.6036 108.282 21.9974 108.31 22.9036C108.338 24.2603 108.282 25.6444 108.31 27.0011C108.338 28.725 108.791 29.1772 110.487 29.2055C112.465 29.2338 114.443 29.2055 116.426 29.2055C117.104 29.2055 117.811 29.2338 117.84 30.1666C117.868 31.0711 117.19 31.2117 116.483 31.2117C113.571 31.2117 110.635 31.2684 107.721 31.1834C104.923 31.0985 103.452 29.4878 103.426 26.6621C103.454 24.7436 103.482 22.8187 103.482 20.8691L103.479 20.8682Z" fill="#FAFAFA"></path>
<path d="M59.3878 31.2395C57.4689 31.2395 55.5152 31.2678 53.5936 31.2395C51.9826 31.2111 51.8693 31.0979 52.5199 29.6571C54.7248 24.5703 56.9855 19.4844 59.2188 14.4003C59.9818 12.6764 59.9498 12.6198 58.0884 12.6198H53.9883C53.3944 12.6198 52.8004 12.4782 52.773 11.7436C52.7447 10.9214 53.3103 10.6702 53.9883 10.6702C57.0952 10.6985 60.202 10.5003 63.3153 10.7835C65.0962 10.9534 65.5485 11.6879 64.8687 13.3552C63.0594 17.7916 61.1944 22.2279 59.386 26.6643C59.2444 27.0032 59.1036 27.3705 58.962 27.7094C58.3964 29.1784 58.3964 29.2068 59.9233 29.2351H65.5759C66.254 29.2351 67.1294 29.1218 67.1586 30.1678C67.1869 31.2979 66.2823 31.2413 65.5476 31.2413L59.3878 31.2395Z" fill="#FAFAFA"></path>
<path d="M123.803 21.9127C123.803 19.426 123.775 16.9392 123.831 14.4214C123.86 13.1214 123.379 12.5284 122.022 12.5842C121.174 12.6125 119.79 13.0364 119.845 11.5948C119.874 10.2098 121.259 10.662 122.106 10.6337C124.932 10.577 127.759 10.6054 130.557 10.6337C131.023 10.6248 131.488 10.6723 131.942 10.7753C132.148 10.8334 132.325 10.9683 132.435 11.1522C132.545 11.3362 132.581 11.5553 132.535 11.7647C132.532 11.955 132.463 12.1384 132.339 12.2829C132.215 12.4275 132.045 12.524 131.857 12.5558C131.687 12.5842 131.491 12.5842 131.291 12.6125C128.493 12.8381 128.465 12.8381 128.493 15.7187C128.522 20.1267 128.607 24.563 128.663 28.972C128.692 31.0915 128.55 31.2322 126.487 31.2605C126.148 31.2605 125.837 31.2322 125.497 31.2605C124.253 31.3455 123.717 30.8649 123.744 29.5366C123.829 26.9932 123.773 24.4498 123.773 21.9356C123.774 21.9286 123.778 21.9224 123.783 21.9181C123.789 21.9139 123.796 21.912 123.803 21.9127Z" fill="#FAFAFA"></path>
</svg>
