<svg width="33" height="20" viewBox="0 0 33 20" fill="none" xmlns="http://www.w3.org/2000/svg">
<path d="M32.0458 4.16189L17.6958 18.5546C17.5249 18.7254 17.3399 18.8467 17.1406 18.9185C16.9413 18.9902 16.7277 19.0255 16.4999 19.0244C16.2722 19.0244 16.0586 18.9891 15.8593 18.9185C15.66 18.8479 15.4749 18.7266 15.3041 18.5546L0.911393 4.16189C0.512782 3.76328 0.313477 3.26501 0.313477 2.6671C0.313477 2.06918 0.527018 1.55668 0.954102 1.1296C1.38118 0.702513 1.87945 0.488972 2.44889 0.488972C3.01834 0.488972 3.5166 0.702513 3.94368 1.1296L16.4999 13.6858L29.0562 1.1296C29.4548 0.730986 29.9462 0.531679 30.5305 0.531679C31.1147 0.531679 31.6198 0.745222 32.0458 1.1723C32.4729 1.59939 32.6864 2.09765 32.6864 2.6671C32.6864 3.23654 32.4729 3.73481 32.0458 4.16189Z" fill="white"></path>
</svg>
