<svg width="31" height="27" viewBox="0 0 31 27" fill="none" xmlns="http://www.w3.org/2000/svg">
<path d="M14.9229 1.09999L14.4068 0.258177L14.9213 1.09999H14.9229ZM1.1875 11.2043L2.37025 11.1245C2.34299 10.8849 2.19962 10.6628 1.96992 10.5044C1.74022 10.3459 1.44185 10.2632 1.13677 10.2735C0.831692 10.2837 0.543364 10.3862 0.331674 10.5595C0.119983 10.7329 0.00120115 10.9638 0 11.2043H1.1875ZM28.4778 13.4778L27.36 18.5661L29.7018 18.8854L30.818 13.7971L28.4778 13.4778ZM17.4088 24.9427H10.0478V26.8134H17.4088V24.9427ZM8.60542 23.8989L7.31975 12.1845L4.95267 12.3454L6.23992 24.0598L8.60542 23.8989ZM27.36 18.5661C26.5573 22.2202 22.3741 24.9427 17.4088 24.9427V26.8134C23.4666 26.8134 28.6916 23.4848 29.7018 18.8854L27.36 18.5661ZM17.4246 4.80149L16.3748 9.84616L18.7182 10.148L19.7679 5.10455L17.4246 4.80149ZM7.8185 11.2193L10.0969 9.67281L8.54525 8.25606L6.27 9.80251L7.8185 11.2193ZM14.2405 4.64186L14.9942 2.35461L12.6952 1.88569L11.9415 4.17169L14.2405 4.64186ZM16.131 1.90564L16.3606 1.96426L17.0873 0.183349L16.8578 0.124734L16.131 1.90564ZM13.0989 6.94158C13.5935 6.21324 13.9767 5.44128 14.2405 4.64186L11.9415 4.17169C11.725 4.82848 11.4104 5.46272 11.0042 6.0611L13.1005 6.94158H13.0989ZM16.3606 1.96426C16.5865 2.01819 16.7915 2.1162 16.9564 2.2492C17.1214 2.38219 17.241 2.54586 17.3043 2.72501L19.6033 2.25609C19.4396 1.77158 19.1232 1.32751 18.6834 0.965133C18.2435 0.602755 17.6945 0.333832 17.0873 0.183349L16.3606 1.96426ZM14.9942 2.35461C15.0257 2.26479 15.0817 2.18144 15.1583 2.11037C15.2348 2.03931 15.3301 1.98221 15.4375 1.94306L14.4068 0.258177C13.5644 0.577444 12.9311 1.16859 12.6952 1.88569L14.9942 2.35461ZM15.4375 1.94306C15.6542 1.86154 15.9022 1.84816 16.131 1.90564L16.8578 0.124734C16.0492 -0.0793981 15.172 -0.0316411 14.4068 0.258177L15.4359 1.94306H15.4375ZM18.848 12.1396H27.0497V10.2689H18.848V12.1396ZM3.90925 25.1373L2.37025 11.1245L0.00475003 11.2854L1.54058 25.2982L3.90925 25.1373ZM2.375 25.2707V11.2043H0V25.2707H2.375ZM1.54058 25.2982C1.53575 25.2529 1.54453 25.2072 1.56328 25.1642C1.58203 25.1212 1.61194 25.0817 1.6511 25.0483C1.69026 25.0149 1.73782 24.9882 1.79075 24.9701C1.84369 24.9519 1.90084 24.9426 1.95858 24.9427V26.8134C3.10808 26.8134 4.00742 26.0377 3.90925 25.1373L1.54217 25.2994L1.54058 25.2982ZM19.7679 5.10455C19.9654 4.15639 19.9093 3.18619 19.6033 2.25609L17.3043 2.72626C17.5274 3.40386 17.5684 4.1107 17.4246 4.80149L19.7679 5.10455ZM10.0478 24.9427C9.68527 24.9423 9.33609 24.8348 9.0691 24.6416C8.80211 24.4484 8.63669 24.1834 8.60542 23.8989L6.23992 24.0598C6.32231 24.8108 6.75906 25.5101 7.464 26.0199C8.16894 26.5297 9.09086 26.8128 10.0478 26.8134V24.9427ZM10.0969 9.67281C11.1736 8.94199 12.3326 8.07273 13.1005 6.94158L11.0042 6.0611C10.4563 6.87049 9.58392 7.55268 8.54525 8.25606L10.0969 9.67281ZM30.818 13.7971C30.9133 13.3643 30.8874 12.9204 30.742 12.4963C30.5965 12.0723 30.3352 11.6784 29.9762 11.3423C29.6172 11.0062 29.1693 10.736 28.6637 10.5505C28.1582 10.3651 27.6073 10.269 27.0497 10.2689V12.1396C27.9474 12.1396 28.633 12.7782 28.4778 13.4778L30.818 13.7971ZM1.95858 24.9427C2.18975 24.9427 2.375 25.0899 2.375 25.2707H0C0 26.1213 0.875583 26.8134 1.95858 26.8134V24.9427ZM16.3748 9.84616C16.3158 10.1287 16.3355 10.418 16.4327 10.694C16.5298 10.97 16.7019 11.226 16.9372 11.4443C17.1725 11.6626 17.4653 11.838 17.7953 11.9583C18.1252 12.0786 18.4844 12.1396 18.848 12.1396V10.2689C18.8287 10.269 18.8096 10.267 18.7921 10.2606C18.7745 10.2541 18.759 10.2448 18.7466 10.2331C18.7342 10.2214 18.7253 10.2078 18.7203 10.193C18.7154 10.1783 18.7147 10.1629 18.7182 10.148L16.3748 9.84616ZM7.31975 12.1845C7.30018 12.0039 7.33375 11.8223 7.42073 11.6544C7.50771 11.4866 7.64404 11.3375 7.8185 11.2193L6.26683 9.80126C5.80769 10.1131 5.44913 10.5063 5.22066 10.9487C4.99218 11.391 4.90033 11.8697 4.95267 12.3454L7.31975 12.1833V12.1845Z" fill="white" fill-opacity="0.5"></path>
</svg>
