<svg width="44" height="38" viewBox="0 0 44 38" xmlns="http://www.w3.org/2000/svg">
  <path d="M29.2295 37.834L20.3753 28.9798L23.292 26.0632L29.2295 32.0007L41.0003 20.2298L43.917 23.1465L29.2295 37.834ZM21.0003 14.9173L37.667 4.50065H4.33366L21.0003 14.9173ZM21.0003 19.084L4.33366 8.66732V29.5007H15.0628L19.2295 33.6673H4.33366C3.18783 33.6673 2.20658 33.259 1.38991 32.4423C0.573245 31.6257 0.165607 30.6451 0.166996 29.5007V4.50065C0.166996 3.35482 0.575329 2.37357 1.392 1.5569C2.20866 0.740238 3.18922 0.332599 4.33366 0.333988H37.667C38.8128 0.333988 39.7941 0.742321 40.6107 1.55899C41.4274 2.37565 41.835 3.35621 41.8337 4.50065V13.5632L37.667 17.7298V8.66732L21.0003 19.084Z"></path>
</svg>