<svg width="39" height="39" viewBox="0 0 39 39" xmlns="http://www.w3.org/2000/svg">
  <path d="M23.1454 3.25965C23.1974 3.06532 23.2872 2.88314 23.4096 2.72351C23.532 2.56388 23.6847 2.42993 23.8589 2.32932C24.0331 2.22872 24.2254 2.16342 24.4248 2.13716C24.6243 2.1109 24.8269 2.1242 25.0212 2.17629C27.8599 2.91694 30.4498 4.4009 32.5243 6.47535C34.5987 8.54979 36.0827 11.1397 36.8233 13.9784C36.8754 14.1727 36.8887 14.3754 36.8625 14.5748C36.8362 14.7742 36.7709 14.9666 36.6703 15.1408C36.5697 15.315 36.4358 15.4676 36.2761 15.59C36.1165 15.7124 35.9343 15.8022 35.74 15.8542C35.6106 15.8882 35.4775 15.9055 35.3438 15.9059C35.0063 15.9059 34.6784 15.7944 34.4108 15.5888C34.1432 15.3832 33.9511 15.095 33.8642 14.7689C33.2601 12.4516 32.049 10.3373 30.3557 8.64395C28.6623 6.95061 26.548 5.73949 24.2307 5.13543C24.0362 5.08366 23.8538 4.99405 23.694 4.87172C23.5341 4.7494 23.4 4.59676 23.2992 4.42254C23.1984 4.24833 23.1329 4.05594 23.1066 3.8564C23.0802 3.65686 23.0934 3.45408 23.1454 3.25965ZM22.6995 11.2604C25.339 11.9648 27.0348 13.6607 27.7392 16.3002C27.8261 16.6262 28.0182 16.9144 28.2858 17.12C28.5534 17.3256 28.8813 17.4371 29.2188 17.4371C29.3525 17.4368 29.4856 17.4194 29.615 17.3854C29.8093 17.3335 29.9915 17.2437 30.1511 17.1213C30.3108 16.9989 30.4447 16.8462 30.5453 16.672C30.6459 16.4978 30.7112 16.3055 30.7375 16.1061C30.7637 15.9066 30.7504 15.704 30.6983 15.5097C29.7183 11.8423 27.1573 9.28129 23.49 8.30129C23.2957 8.24939 23.0931 8.23626 22.8937 8.26266C22.6943 8.28906 22.5021 8.35447 22.328 8.45516C22.1539 8.55585 22.0013 8.68984 21.879 8.84949C21.7567 9.00914 21.6671 9.19131 21.6152 9.38561C21.5632 9.57991 21.5501 9.78253 21.5765 9.9819C21.6029 10.1813 21.6683 10.3735 21.769 10.5476C21.8697 10.7217 22.0037 10.8742 22.1634 10.9966C22.323 11.1189 22.5052 11.2085 22.6995 11.2604ZM38.3833 29.511C38.042 32.1046 36.7683 34.4853 34.8 36.2085C32.8317 37.9316 30.3035 38.8793 27.6875 38.8746C12.4899 38.8746 0.125017 26.5098 0.125017 11.3121C0.120328 8.69615 1.06805 6.16792 2.79118 4.19964C4.51431 2.23136 6.895 0.957622 9.48861 0.616331C10.1445 0.536249 10.8086 0.670426 11.382 0.998835C11.9553 1.32724 12.4071 1.83227 12.6698 2.43852L16.7123 11.4633V11.4863C16.9134 11.9504 16.9965 12.457 16.9541 12.961C16.9117 13.465 16.7451 13.9507 16.4692 14.3746C16.4347 14.4263 16.3984 14.4741 16.3601 14.522L12.375 19.2459C13.8087 22.1591 16.8558 25.1795 19.8073 26.617L24.4662 22.6529C24.5119 22.6145 24.5598 22.5787 24.6097 22.5457C25.0333 22.2632 25.5206 22.0908 26.0276 22.044C26.5346 21.9972 27.0452 22.0776 27.5133 22.2778L27.5382 22.2893L36.5554 26.3298C37.1627 26.5916 37.6689 27.043 37.9984 27.6164C38.3279 28.1898 38.4629 28.8545 38.3833 29.511ZM35.3438 29.1282H35.3227L26.3266 25.0991L21.6659 29.0631C21.6207 29.1014 21.5734 29.1372 21.5242 29.1703C21.0835 29.4643 20.5741 29.639 20.0457 29.6772C19.5173 29.7155 18.988 29.616 18.5096 29.3885C14.9245 27.6563 11.351 24.1095 9.61685 20.5628C9.38722 20.0878 9.28418 19.5616 9.31771 19.0351C9.35125 18.5086 9.52022 17.9997 9.80826 17.5577C9.84073 17.5058 9.87721 17.4565 9.91736 17.4103L13.9063 12.6807L9.88674 3.68457C9.88598 3.67694 9.88598 3.66924 9.88674 3.6616C8.03058 3.90373 6.32635 4.81418 5.09318 6.22246C3.86002 7.63073 3.1825 9.44024 3.18752 11.3121C3.19461 17.8077 5.77813 24.0353 10.3712 28.6284C14.9643 33.2215 21.1919 35.805 27.6875 35.8121C29.5582 35.8185 31.3673 35.1434 32.7764 33.9129C34.1854 32.6824 35.0981 30.9808 35.3438 29.1263V29.1282Z"></path>
</svg>