<svg width="34" height="42" viewBox="0 0 34 42" xmlns="http://www.w3.org/2000/svg">
  <path d="M16.9997 20.9994C18.1455 20.9994 19.1268 20.591 19.9434 19.7743C20.7601 18.9577 21.1677 17.9771 21.1663 16.8327C21.1663 15.6869 20.758 14.7056 19.9413 13.8889C19.1247 13.0723 18.1441 12.6646 16.9997 12.666C15.8538 12.666 14.8726 13.0744 14.0559 13.891C13.2393 14.7077 12.8316 15.6882 12.833 16.8327C12.833 17.9785 13.2413 18.9598 14.058 19.7764C14.8747 20.5931 15.8552 21.0007 16.9997 20.9994ZM16.9997 36.3119C21.2358 32.423 24.3781 28.8896 26.4268 25.7119C28.4754 22.5341 29.4997 19.7132 29.4997 17.2493C29.4997 13.4646 28.2927 10.366 25.8788 7.95352C23.465 5.54102 20.5052 4.33407 16.9997 4.33268C13.4927 4.33268 10.5323 5.53963 8.11842 7.95352C5.70454 10.3674 4.49829 13.466 4.49967 17.2493C4.49967 19.7146 5.52398 22.5362 7.57259 25.7139C9.6212 28.8917 12.7636 32.4244 16.9997 36.3119ZM16.9997 41.0514C16.7219 41.0514 16.4441 40.9994 16.1663 40.8952C15.8886 40.791 15.6455 40.6521 15.4372 40.4785C10.3677 35.9994 6.58301 31.841 4.08301 28.0035C1.58301 24.166 0.333008 20.5813 0.333008 17.2493C0.333008 12.041 2.0087 7.89171 5.36009 4.80143C8.71148 1.71115 12.5913 0.166016 16.9997 0.166016C21.4094 0.166016 25.2899 1.71115 28.6413 4.80143C31.9927 7.89171 33.6677 12.041 33.6663 17.2493C33.6663 20.5827 32.4163 24.1681 29.9163 28.0056C27.4163 31.8431 23.6316 36.0007 18.5622 40.4785C18.3538 40.6521 18.1108 40.791 17.833 40.8952C17.5552 40.9994 17.2775 41.0514 16.9997 41.0514Z"></path>
</svg>