<svg width="91" height="90" viewBox="0 0 91 90" xmlns="http://www.w3.org/2000/svg">
  <path d="M45.5274 84.3311C23.7378 84.3311 6.07374 66.7115 6.07374 44.9766C6.07374 23.2417 23.7378 5.62207 45.5274 5.62207C67.3171 5.62207 84.9811 23.2417 84.9811 44.9766C84.9811 66.7115 67.3171 84.3311 45.5274 84.3311ZM45.5274 89.9531C70.4299 89.9531 90.6173 69.8164 90.6173 44.9766C90.6173 20.1367 70.4299 0 45.5274 0C20.6249 0 0.4375 20.1367 0.4375 44.9766C0.4375 69.8164 20.6249 89.9531 45.5274 89.9531Z"></path>
  <path d="M35.7835 28.4219C36.7222 27.9401 37.852 28.0219 38.7111 28.634L58.4379 42.6891C59.1785 43.2168 59.618 44.0688 59.618 44.9766C59.618 45.8844 59.1785 46.7364 58.4379 47.264L38.7111 61.3192C37.852 61.9312 36.7222 62.0131 35.7835 61.5312C34.8449 61.0494 34.2549 60.0847 34.2549 59.0318V30.9214C34.2549 29.8684 34.8449 28.9037 35.7835 28.4219Z"></path>
</svg>