<svg width="104" height="96" viewBox="0 0 104 96" fill="none" xmlns="http://www.w3.org/2000/svg">
<path d="M101.76 69.12H17.9133C19.8333 65.3616 21.8397 61.3872 23.7741 57.3312C31.0557 59.04 40.1757 53.4528 50.9517 40.6848C51.5073 42.5502 52.1659 44.3834 52.9245 46.176C55.8045 52.8672 59.3421 56.664 63.4845 57.4512C68.1885 58.3392 73.0029 55.4256 78.1197 48.552C80.3421 52.4784 86.2029 57.6 101.76 57.6C102.269 57.6 102.757 57.3977 103.117 57.0376C103.477 56.6776 103.68 56.1892 103.68 55.68C103.68 55.1708 103.477 54.6824 103.117 54.3223C102.757 53.9623 102.269 53.76 101.76 53.76C81.1773 53.76 80.6397 44.5248 80.6397 44.16C80.6384 43.6936 80.4673 43.2437 80.1586 42.8942C79.8498 42.5447 79.4244 42.3196 78.9617 42.2608C78.4991 42.202 78.0309 42.3136 77.6445 42.5748C77.2581 42.8359 76.98 43.2288 76.8621 43.68C72.0957 50.88 67.7421 54.3504 64.2189 53.6832C58.3581 52.5744 54.6525 40.6128 53.7213 36.096C53.6398 35.6989 53.4347 35.3378 53.1353 35.0645C52.836 34.7911 52.4579 34.6195 52.0551 34.5742C51.6522 34.5289 51.2454 34.6123 50.8929 34.8124C50.5403 35.0124 50.2602 35.3189 50.0925 35.688C40.1373 48.096 31.5309 54.36 25.4733 53.7168C37.1085 28.56 40.8909 12.0768 36.7149 4.6896C35.5197 2.5584 32.9949 0 27.8397 0H27.7533C21.1389 0.048 15.6237 6.9648 12.9885 18.5232C11.3373 25.824 11.0397 33.9456 12.2397 40.8C13.5069 48.1248 16.2573 53.28 20.2317 55.8336C18.0381 60.4368 15.7725 64.9536 13.5885 69.12H1.91972C1.41051 69.12 0.922148 69.3223 0.562078 69.6823C0.202009 70.0424 -0.000276863 70.5308 -0.000276863 71.04C-0.000276863 71.5492 0.202009 72.0376 0.562078 72.3976C0.922148 72.7577 1.41051 72.96 1.91972 72.96H11.5677C5.39012 84.5616 0.350123 92.9664 0.273323 93.0912C0.143405 93.3074 0.057356 93.547 0.0200927 93.7965C-0.0171706 94.0459 -0.00491762 94.3003 0.0561507 94.545C0.117219 94.7897 0.225906 95.02 0.376003 95.2227C0.5261 95.4254 0.714664 95.5966 0.930923 95.7264C1.22892 95.9072 1.57118 96.0019 1.91972 96C2.25119 96.0001 2.57703 95.9144 2.86555 95.7512C3.15406 95.588 3.39542 95.3529 3.56612 95.0688C3.64292 94.9392 9.25412 85.5888 15.9117 72.96H101.76C102.269 72.96 102.757 72.7577 103.117 72.3976C103.477 72.0376 103.68 71.5492 103.68 71.04C103.68 70.5308 103.477 70.0424 103.117 69.6823C102.757 69.3223 102.269 69.12 101.76 69.12ZM16.0269 40.1472C14.944 33.2412 15.1884 26.192 16.7469 19.3776C18.4557 11.8752 22.2669 3.84 27.8397 3.84C31.4301 3.84 32.7261 5.4048 33.3885 6.576C37.9197 14.592 28.7613 37.44 21.8877 52.32C19.0941 50.2464 17.0349 45.9984 16.0269 40.1472Z" fill="#0E0F11"></path>
</svg>
