<svg width="32" height="28" viewBox="0 0 32 28" fill="none" xmlns="http://www.w3.org/2000/svg">
<path d="M15.9751 0.681099C17.0973 0.681099 18.1736 1.1269 18.9671 1.92042C19.7606 2.71394 20.2064 3.79019 20.2064 4.9124C20.2064 6.03461 19.7606 7.11086 18.9671 7.90438C18.1736 8.6979 17.0973 9.1437 15.9751 9.1437C14.8526 9.1437 13.7762 8.6978 12.9825 7.9041C12.1888 7.1104 11.7429 6.03391 11.7429 4.91145C11.7429 3.78899 12.1888 2.7125 12.9825 1.9188C13.7762 1.1251 14.8526 0.681099 15.9751 0.681099ZM15.9751 2.5811C15.3568 2.5811 14.7638 2.82672 14.3266 3.26392C13.8894 3.70112 13.6438 4.2941 13.6438 4.9124C13.6438 5.5307 13.8894 6.12367 14.3266 6.56088C14.7638 6.99808 15.3568 7.2437 15.9751 7.2437C16.5937 7.2437 17.1869 6.99798 17.6243 6.5606C18.0616 6.12322 18.3074 5.53 18.3074 4.91145C18.3074 4.2929 18.0616 3.69968 17.6243 3.2623C17.1869 2.82492 16.5937 2.5811 15.9751 2.5811ZM2.7302 16.8501C2.7302 17.1021 2.63012 17.3437 2.45196 17.5219C2.2738 17.7 2.03216 17.8001 1.7802 17.8001C1.52825 17.8001 1.28661 17.7 1.10845 17.5219C0.930293 17.3437 0.830205 17.1021 0.830205 16.8501V12.1267C0.830266 11.6613 1.00112 11.2122 1.31036 10.8644C1.61961 10.5166 2.04573 10.2944 2.5079 10.24L2.7302 10.2267H7.9685C7.69205 10.7037 7.52343 11.2355 7.4745 11.7847L7.4593 12.1267H2.7283L2.7302 16.8501ZM30.2308 17.8001C30.4828 17.8001 30.7244 17.7 30.9026 17.5219C31.0807 17.3437 31.1808 17.1021 31.1808 16.8501V12.1267L31.1675 11.9063C31.1135 11.4438 30.8915 11.0172 30.5437 10.7076C30.1959 10.3979 29.7465 10.2268 29.2808 10.2267H23.9912C24.2686 10.7074 24.4472 11.2584 24.489 11.8436L24.4985 12.1286H29.2808V16.8501C29.2808 17.1021 29.3809 17.3437 29.5591 17.5219C29.7372 17.7 29.9788 17.8001 30.2308 17.8001ZM20.7004 10.2267C21.1661 10.2268 21.6155 10.3979 21.9633 10.7076C22.3111 11.0172 22.5331 11.4438 22.5871 11.9063L22.5985 12.1267V16.8501C22.5985 17.1021 22.4984 17.3437 22.3203 17.5219C22.1421 17.7 21.9005 17.8001 21.6485 17.8001C21.3965 17.8001 21.1549 17.7 20.9768 17.5219C20.7986 17.3437 20.6985 17.1021 20.6985 16.8501V12.1267H11.2593V16.8501C11.2593 17.1021 11.1592 17.3437 10.9811 17.5219C10.8029 17.7 10.5613 17.8001 10.3093 17.8001C10.0573 17.8001 9.81571 17.7 9.63755 17.5219C9.45939 17.3437 9.3593 17.1021 9.3593 16.8501V12.1267C9.35937 11.6613 9.53022 11.2122 9.83946 10.8644C10.1487 10.5166 10.5748 10.2944 11.037 10.24L11.2593 10.2267H20.6985H20.7004ZM29.087 5.509C29.087 4.54476 28.704 3.62002 28.0221 2.93821C27.3403 2.25639 26.4156 1.87335 25.4514 1.87335C24.4871 1.87335 23.5624 2.25639 22.8806 2.93821C22.1987 3.62002 21.8157 4.54476 21.8157 5.509C21.8157 6.47323 22.1987 7.39798 22.8806 8.07979C23.5624 8.76161 24.4871 9.14465 25.4514 9.14465C26.4156 9.14465 27.3403 8.76161 28.0221 8.07979C28.704 7.39798 29.087 6.47323 29.087 5.509ZM23.7157 5.509C23.7157 5.04868 23.8986 4.60721 24.2241 4.28171C24.5496 3.95621 24.991 3.77335 25.4514 3.77335C25.9117 3.77335 26.3531 3.95621 26.6786 4.28171C27.0041 4.60721 27.187 5.04868 27.187 5.509C27.187 5.96932 27.0041 6.41079 26.6786 6.73629C26.3531 7.06179 25.9117 7.24465 25.4514 7.24465C24.991 7.24465 24.5496 7.06179 24.2241 6.73629C23.8986 6.41079 23.7157 5.96932 23.7157 5.509ZM6.5302 1.8724C7.49444 1.8724 8.41918 2.25544 9.101 2.93726C9.78281 3.61907 10.1659 4.54381 10.1659 5.50805C10.1659 6.47228 9.78281 7.39703 9.101 8.07884C8.41918 8.76066 7.49444 9.1437 6.5302 9.1437C5.56597 9.1437 4.64123 8.76066 3.95941 8.07884C3.2776 7.39703 2.89455 6.47228 2.89455 5.50805C2.89455 4.54381 3.2776 3.61907 3.95941 2.93726C4.64123 2.25544 5.56597 1.8724 6.5302 1.8724ZM6.5302 3.7724C6.06988 3.7724 5.62841 3.95526 5.30292 4.28076C4.97742 4.60626 4.79455 5.04773 4.79455 5.50805C4.79455 5.96837 4.97742 6.40984 5.30292 6.73534C5.62841 7.06084 6.06988 7.2437 6.5302 7.2437C6.99053 7.2437 7.432 7.06084 7.75749 6.73534C8.08299 6.40984 8.26585 5.96837 8.26585 5.50805C8.26585 5.04773 8.08299 4.60626 7.75749 4.28076C7.432 3.95526 6.99053 3.7724 6.5302 3.7724ZM1.7498 19.7001C1.49785 19.7001 1.25621 19.8002 1.07805 19.9783C0.899894 20.1565 0.799805 20.3981 0.799805 20.6501V22.5501C0.799805 23.8099 1.30025 25.0181 2.19105 25.9089C3.08185 26.7997 4.29003 27.3001 5.5498 27.3001H26.4498C27.7096 27.3001 28.9178 26.7997 29.8086 25.9089C30.6994 25.0181 31.1998 23.8099 31.1998 22.5501V20.6501C31.1998 20.3981 31.0997 20.1565 30.9216 19.9783C30.7434 19.8002 30.5018 19.7001 30.2498 19.7001H1.7498ZM2.6998 22.5501V21.6001H29.2998V22.5501C29.2998 23.306 28.9995 24.0309 28.4651 24.5654C27.9306 25.0998 27.2057 25.4001 26.4498 25.4001H5.5498C4.79394 25.4001 4.06903 25.0998 3.53455 24.5654C3.00007 24.0309 2.6998 23.306 2.6998 22.5501Z" fill="white" fill-opacity="0.5"></path>
</svg>
