<svg width="15" height="12" viewBox="0 0 15 12" fill="none" xmlns="http://www.w3.org/2000/svg">
<path d="M14.7671 1.41176C14.2235 1.65882 13.6376 1.82118 13.0306 1.89882C13.6518 1.52471 14.1318 0.931764 14.3576 0.218823C13.7718 0.571765 13.1224 0.818823 12.4376 0.96C11.88 0.352941 11.0965 0 10.2071 0C8.54824 0 7.19294 1.35529 7.19294 3.02823C7.19294 3.26823 7.22118 3.50118 7.27059 3.72C4.75765 3.59294 2.52 2.38588 1.03059 0.557647C0.769412 1.00235 0.621177 1.52471 0.621177 2.07529C0.621177 3.12706 1.15059 4.05882 1.96941 4.58823C1.46824 4.58823 1.00235 4.44706 0.592941 4.23529V4.25647C0.592941 5.7247 1.63765 6.95294 3.02118 7.22823C2.57698 7.34979 2.11066 7.36671 1.65882 7.27765C1.85055 7.8794 2.22603 8.40593 2.73248 8.78324C3.23894 9.16055 3.8509 9.36966 4.48235 9.38118C3.41197 10.2285 2.08517 10.6866 0.72 10.68C0.48 10.68 0.24 10.6659 0 10.6376C1.34118 11.4988 2.93647 12 4.64471 12C10.2071 12 13.2635 7.38353 13.2635 3.38118C13.2635 3.24706 13.2635 3.12 13.2565 2.98588C13.8494 2.56235 14.3576 2.02588 14.7671 1.41176Z" fill="#0E0F11"></path>
</svg>
